<?xml version="1.0" encoding="UTF-8"?>
<svg version="1.1" xmlns="http://www.w3.org/2000/svg" width="500" height="500">
<path d="M0 0 C165 0 330 0 500 0 C500 165 500 330 500 500 C335 500 170 500 0 500 C0 335 0 170 0 0 Z " fill="#000000" transform="translate(0,0)"/>
<path d="M0 0 C31.35 0 62.7 0 95 0 C95 22.77 95 45.54 95 69 C63.65 69 32.3 69 0 69 C0 46.23 0 23.46 0 0 Z " fill="#E9A615" transform="translate(99,196)"/>
<path d="M0 0 C-1.41292095 4.8274799 -3.42974154 8.7162359 -6 13 C-7.216875 12.67 -8.43375 12.34 -9.6875 12 C-17.20523947 10.37550425 -25.68081721 9.10471058 -32.5625 13.1875 C-36.18617625 15.87850009 -38.97156063 18.94312126 -41 23 C-41.65654104 30.69552203 -41.88061888 36.80029494 -37 43 C-32.34705191 47.65294809 -27.14632926 49.05050163 -20.6875 49.3125 C-15.46511042 49.21345468 -10.92333519 47.66422598 -6 46 C-4.02 50.29 -2.04 54.58 0 59 C-9.0772037 65.80790277 -20.01599353 66.17133268 -31 65 C-41.31560487 62.74346143 -48.43130275 55.88243669 -55 48 C-55 53.28 -55 58.56 -55 64 C-60.28 64 -65.56 64 -71 64 C-71.19916016 61.03386719 -71.19916016 61.03386719 -71.40234375 58.0078125 C-71.53463478 56.05826045 -71.66693789 54.1087092 -71.79956055 52.15917969 C-71.93453704 50.16869449 -72.06787289 48.17809825 -72.20117188 46.1875 C-72.68374954 39.1096943 -73.24115312 32.05354969 -74 25 C-74.38857178 26.145896 -74.77714355 27.29179199 -75.17749023 28.47241211 C-76.61511834 32.70942577 -78.05659846 36.94512031 -79.49926758 41.18041992 C-80.12402412 43.01632303 -80.74772473 44.85258582 -81.37036133 46.68920898 C-82.26368603 49.32369956 -83.16075657 51.95688816 -84.05859375 54.58984375 C-84.3377916 55.41588608 -84.61698944 56.24192841 -84.90464783 57.09300232 C-86.88612829 62.88612829 -86.88612829 62.88612829 -88 64 C-91.00003445 64.14177857 -93.99757235 64.04228771 -97 64 C-100.77613319 56.03306478 -103.51492326 47.79983902 -106.25 39.4375 C-106.71311863 38.03306356 -107.17665718 36.62876551 -107.640625 35.22460938 C-108.76525829 31.81798684 -109.88421138 28.40953121 -111 25 C-112.22112627 33.47156351 -112.61901847 42.00918087 -113.125 50.54663086 C-113.24599811 52.57169491 -113.37289831 54.59640363 -113.5 56.62109375 C-113.5721875 57.8217749 -113.644375 59.02245605 -113.71875 60.25952148 C-114 63 -114 63 -115 64 C-117.53049402 64.07313567 -120.03304837 64.09247527 -122.5625 64.0625 C-123.27341797 64.05798828 -123.98433594 64.05347656 -124.71679688 64.04882812 C-126.47790013 64.03700864 -128.23896036 64.01907263 -130 64 C-130.1430784 55.15849326 -129.75339933 46.49814388 -128.90625 37.69921875 C-128.79526978 36.4968306 -128.68428955 35.29444244 -128.56994629 34.05561829 C-128.2188639 30.26570242 -127.85958128 26.47661795 -127.5 22.6875 C-127.25856874 20.09705602 -127.0176784 17.50656157 -126.77734375 14.91601562 C-126.19114013 8.61007699 -125.59758784 2.30486956 -125 -4 C-119.06 -4 -113.12 -4 -107 -4 C-97.23404255 20.91489362 -97.23404255 20.91489362 -93 32 C-90.99876374 28.99814562 -89.886252 26.30753322 -88.625 22.9375 C-86.48019763 17.26415179 -84.26647867 11.62556258 -82 6 C-81.24955539 4.1251779 -80.49954653 2.25018132 -79.75 0.375 C-79.1725 -1.06875 -78.595 -2.5125 -78 -4 C-72.06 -4 -66.12 -4 -60 -4 C-59.01 7.385 -59.01 7.385 -58 19 C-56.35 15.7 -54.7 12.4 -53 9 C-41.02021558 -7.19627169 -16.73363765 -11.15575844 0 0 Z " fill="#F9F9F9" transform="translate(355,201)"/>
<path d="M0 0 C31.35 0 62.7 0 95 0 C95 7.59 95 15.18 95 23 C63.65 23 32.3 23 0 23 C0 15.41 0 7.82 0 0 Z " fill="#C5481C" transform="translate(99,242)"/>
<path d="M0 0 C31.35 0 62.7 0 95 0 C95 7.59 95 15.18 95 23 C63.65 23 32.3 23 0 23 C0 15.41 0 7.82 0 0 Z " fill="#568998" transform="translate(99,196)"/>
<path d="M0 0 C95.7 0 191.4 0 290 0 C290 1.32 290 2.64 290 4 C194.3 4 98.6 4 0 4 C0 2.68 0 1.36 0 0 Z " fill="#E2E2E2" transform="translate(98,275)"/>
<path d="M0 0 C0.33 0 0.66 0 1 0 C2.09626282 44.59398901 2.09626282 44.59398901 2.125 60.1875 C2.12951172 61.1870874 2.13402344 62.1866748 2.13867188 63.21655273 C2.13673828 64.10802002 2.13480469 64.9994873 2.1328125 65.91796875 C2.13168457 66.66844482 2.13055664 67.4189209 2.12939453 68.19213867 C2 70 2 70 1 72 C-11.63001462 71.89267673 -24.25996998 71.78008021 -36.88987637 71.66066074 C-42.75379448 71.60538334 -48.61771754 71.55195578 -54.48168945 71.50268555 C-60.13566145 71.45511288 -65.78957066 71.40277293 -71.44346809 71.34705925 C-73.60571807 71.32660342 -75.76798528 71.30789581 -77.93026543 71.29092598 C-80.94763325 71.26695316 -83.96488119 71.23688925 -86.98217773 71.20532227 C-88.33731728 71.19668907 -88.33731728 71.19668907 -89.71983337 71.18788147 C-95.88594784 71.11405216 -95.88594784 71.11405216 -97 70 C-97.10003309 68.57443408 -97.1308116 67.14391366 -97.1328125 65.71484375 C-97.13474609 64.80226807 -97.13667969 63.88969238 -97.13867188 62.94946289 C-97.13416016 61.95551514 -97.12964844 60.96156738 -97.125 59.9375 C-97.12306641 58.92357178 -97.12113281 57.90964355 -97.11914062 56.86499023 C-97.05678124 45.56495011 -96.56355641 34.28461761 -96 23 C-95.67 23 -95.34 23 -95 23 C-95 38.18 -95 53.36 -95 69 C-63.65 69 -32.3 69 0 69 C0 46.23 0 23.46 0 0 Z " fill="#280B05" transform="translate(194,196)"/>
<path d="M0 0 C30.36 0 60.72 0 92 0 C92 0.33 92 0.66 92 1 C90.37174789 1.0154612 90.37174789 1.0154612 88.71060181 1.03123474 C78.498163 1.12884332 68.28578683 1.23156532 58.07345009 1.33933926 C52.8227514 1.3945859 47.57204716 1.44800869 42.32128906 1.49731445 C37.25733858 1.54493231 32.19345726 1.59727417 27.12958908 1.65294075 C25.19424529 1.67337601 23.25888253 1.69208712 21.3235054 1.70907402 C18.62005988 1.73309213 15.91674578 1.76315019 13.21337891 1.79467773 C12.00389336 1.80331093 12.00389336 1.80331093 10.76997375 1.81211853 C6.75426995 1.77718743 6.75426995 1.77718743 3 3 C1.95297714 8.863328 2 13.88279922 2 20 C32.69 20.33 63.38 20.66 95 21 C95 21.66 95 22.32 95 23 C63.65 23 32.3 23 0 23 C0 15.41 0 7.82 0 0 Z " fill="#688579" transform="translate(99,196)"/>
<path d="M0 0 C31.35 0 62.7 0 95 0 C95 7.59 95 15.18 95 23 C94.67 23 94.34 23 94 23 C93.67 16.4 93.34 9.8 93 3 C62.97 2.67 32.94 2.34 2 2 C2 8.27 2 14.54 2 21 C1.34 21.66 0.68 22.32 0 23 C0 15.41 0 7.82 0 0 Z " fill="#D2A942" transform="translate(99,219)"/>
<path d="M0 0 C5.625 -0.25 5.625 -0.25 9 2 C8.814375 2.928125 8.62875 3.85625 8.4375 4.8125 C7.75876119 8.01343771 7.75876119 8.01343771 9 11 C6 11 6 11 4.3125 9.5 C3.879375 9.005 3.44625 8.51 3 8 C3 8.99 3 9.98 3 11 C-1.62 11 -6.24 11 -11 11 C-11 7.7 -11 4.4 -11 1 C-4.9453125 0.8046875 -4.9453125 0.8046875 -3 1 C-2.34 1.66 -1.68 2.32 -1 3 C-0.67 2.01 -0.34 1.02 0 0 Z " fill="#2C2C2C" transform="translate(220,287)"/>
<path d="M0 0 C0.33 0 0.66 0 1 0 C1.06058594 1.10859375 1.12117188 2.2171875 1.18359375 3.359375 C1.26802951 4.8229282 1.35267599 6.28646925 1.4375 7.75 C1.47681641 8.47960937 1.51613281 9.20921875 1.55664062 9.9609375 C1.76147098 13.4272973 2.0852002 16.65333026 3 20 C13.07980699 21.05488335 23.11205254 21.21407073 33.234375 21.31640625 C34.96600789 21.33702496 36.69763631 21.35802253 38.42926025 21.37937927 C42.94674005 21.43409305 47.46426136 21.48372188 51.98181152 21.53222656 C56.60770278 21.58281619 61.23353511 21.63830499 65.859375 21.69335938 C74.90620113 21.8003191 83.95307842 21.90144344 93 22 C93.33 14.74 93.66 7.48 94 0 C94.33 0 94.66 0 95 0 C95 7.59 95 15.18 95 23 C63.65 23 32.3 23 0 23 C0 15.41 0 7.82 0 0 Z " fill="#AA5132" transform="translate(99,242)"/>
<path d="M0 0 C0.66 0 1.32 0 2 0 C3.04892238 1.63631892 4.04906703 3.30485863 5 5 C5.33 5.33 5.66 5.66 6 6 C6.29178308 8.77193929 6.36366316 10.41409825 4.875 12.8125 C2.16554166 14.52849028 0.13704316 14.333728 -3 14 C-5 12 -5 12 -5.3125 9.0625 C-5 6 -5 6 -3.625 4.125 C-2 3 -2 3 0 3 C0 2.01 0 1.02 0 0 Z " fill="#F4F4F4" transform="translate(304,284)"/>
<path d="M0 0 C3.375 -0.125 3.375 -0.125 7 0 C9 2 9 2 9.25 5 C9 8 9 8 7 10 C3.375 10.125 3.375 10.125 0 10 C0 6.7 0 3.4 0 0 Z " fill="#D0D0D0" transform="translate(196,288)"/>
<path d="M0 0 C1.32 0.33 2.64 0.66 4 1 C4.33 1.66 4.66 2.32 5 3 C5.433125 2.505 5.86625 2.01 6.3125 1.5 C8 0 8 0 11 0 C11 3.3 11 6.6 11 10 C10.01 10 9.02 10 8 10 C7.67 9.01 7.34 8.02 7 7 C6.01 7 5.02 7 4 7 C3.67 7.99 3.34 8.98 3 10 C2.01 10 1.02 10 0 10 C0 6.7 0 3.4 0 0 Z " fill="#E1E1E1" transform="translate(162,288)"/>
<path d="M0 0 C2.64 0 5.28 0 8 0 C9.125 4.75 9.125 4.75 8 7 C8.33 7.99 8.66 8.98 9 10 C7.68 9.67 6.36 9.34 5 9 C5 8.34 5 7.68 5 7 C4.34 7 3.68 7 3 7 C3 7.99 3 8.98 3 10 C2.01 10 1.02 10 0 10 C0 6.7 0 3.4 0 0 Z " fill="#DDDDDD" transform="translate(275,288)"/>
<path d="M0 0 C2.64 0 5.28 0 8 0 C9.125 4.75 9.125 4.75 8 7 C8.33 7.99 8.66 8.98 9 10 C7.68 9.67 6.36 9.34 5 9 C5 8.34 5 7.68 5 7 C4.34 7 3.68 7 3 7 C3 7.99 3 8.98 3 10 C2.01 10 1.02 10 0 10 C0 6.7 0 3.4 0 0 Z " fill="#DADADA" transform="translate(263,288)"/>
<path d="M0 0 C0.99 0 1.98 0 3 0 C3.66 0.99 4.32 1.98 5 3 C5.33 2.01 5.66 1.02 6 0 C6.99 0 7.98 0 9 0 C9 3.3 9 6.6 9 10 C5 9 5 9 3 6 C2.67 7.32 2.34 8.64 2 10 C1.34 10 0.68 10 0 10 C0 6.7 0 3.4 0 0 Z " fill="#D8D8D8" transform="translate(314,288)"/>
<path d="M0 0 C2.31 0 4.62 0 7 0 C7.74010154 3.42296964 8 6.50130105 8 10 C5 10 5 10 3.3125 8.5 C2.879375 8.005 2.44625 7.51 2 7 C2 7.99 2 8.98 2 10 C1.34 10 0.68 10 0 10 C0 6.7 0 3.4 0 0 Z " fill="#F2F2F2" transform="translate(221,288)"/>
<path d="M0 0 C0.99 0 1.98 0 3 0 C6 6.625 6 6.625 6 10 C5.01 10 4.02 10 3 10 C3 9.34 3 8.68 3 8 C1.68 8 0.36 8 -1 8 C-1 8.66 -1 9.32 -1 10 C-1.99 10 -2.98 10 -4 10 C-3.52449439 8.51965236 -3.04448784 7.04074979 -2.5625 5.5625 C-2.29566406 4.73878906 -2.02882812 3.91507812 -1.75390625 3.06640625 C-1 1 -1 1 0 0 Z " fill="#C8C8C8" transform="translate(254,288)"/>
<path d="M0 0 C2.64 0 5.28 0 8 0 C8 0.66 8 1.32 8 2 C6.02 2 4.04 2 2 2 C2 2.66 2 3.32 2 4 C3.65 4 5.3 4 7 4 C7 4.66 7 5.32 7 6 C5.35 6 3.7 6 2 6 C2 6.66 2 7.32 2 8 C3.98 8 5.96 8 8 8 C8 8.66 8 9.32 8 10 C5.36 10 2.72 10 0 10 C0 6.7 0 3.4 0 0 Z " fill="#EDEDED" transform="translate(209,288)"/>
<path d="M0 0 C0 0.66 0 1.32 0 2 C-1.65 2.33 -3.3 2.66 -5 3 C-5 4.32 -5 5.64 -5 7 C-3.35 7 -1.7 7 0 7 C0 7.99 0 8.98 0 10 C-5.42857143 10.36190476 -5.42857143 10.36190476 -7.875 8.8125 C-9.42229478 6.31963619 -9.50405716 4.88032665 -9 2 C-6.04897468 -1.27891703 -4.09533092 -1.25135112 0 0 Z " fill="#E4E4E4" transform="translate(247,288)"/>
<path d="M0 0 C2.31 0 4.62 0 7 0 C7 0.66 7 1.32 7 2 C5.35 2 3.7 2 2 2 C2 2.66 2 3.32 2 4 C3.32 4 4.64 4 6 4 C6 4.66 6 5.32 6 6 C4.68 6 3.36 6 2 6 C2 6.66 2 7.32 2 8 C3.65 8 5.3 8 7 8 C7 8.66 7 9.32 7 10 C4.69 10 2.38 10 0 10 C0 6.7 0 3.4 0 0 Z " fill="#F0F0F0" transform="translate(288,288)"/>
<path d="M0 0 C0 3.3 0 6.6 0 10 C-1.65 9.67 -3.3 9.34 -5 9 C-6.09658936 5.71023192 -5.79953138 4.28696233 -5 1 C-1.125 0 -1.125 0 0 0 Z " fill="#252525" transform="translate(288,288)"/>
<path d="M0 0 C1.65 0 3.3 0 5 0 C5 3.3 5 6.6 5 10 C3.02 10 1.04 10 -1 10 C-1 9.34 -1 8.68 -1 8 C-0.34 8 0.32 8 1 8 C0.67 5.36 0.34 2.72 0 0 Z " fill="#C7C7C7" transform="translate(177,288)"/>
<path d="M0 0 C0.66 0.66 1.32 1.32 2 2 C1.69972883 3.67293936 1.36442233 5.33985384 1 7 C1.33 7.99 1.66 8.98 2 10 C0.68 9.67 -0.64 9.34 -2 9 C-2 8.34 -2 7.68 -2 7 C-2.66 6.67 -3.32 6.34 -4 6 C-4 4.68 -4 3.36 -4 2 C-2.68 2 -1.36 2 0 2 C0 1.34 0 0.68 0 0 Z " fill="#AFAFAF" transform="translate(282,288)"/>
<path d="M0 0 C0.66 0.33 1.32 0.66 2 1 C2.125 3.875 2.125 3.875 2 7 C0 9 0 9 -3.125 9.125 C-4.548125 9.063125 -4.548125 9.063125 -6 9 C-6 6.36 -6 3.72 -6 1 C-5.67 1 -5.34 1 -5 1 C-5 2.98 -5 4.96 -5 7 C-3.68 6.67 -2.36 6.34 -1 6 C-0.67 4.02 -0.34 2.04 0 0 Z " fill="#F5F5F5" transform="translate(203,289)"/>
<path d="M0 0 C1.65 0.33 3.3 0.66 5 1 C4.67 2.65 4.34 4.3 4 6 C2.35 5.67 0.7 5.34 -1 5 C-0.67 3.35 -0.34 1.7 0 0 Z " fill="#191919" transform="translate(302,290)"/>
<path d="M0 0 C0.66 0 1.32 0 2 0 C3.04892238 1.63631892 4.04906703 3.30485863 5 5 C5.33 5.33 5.66 5.66 6 6 C6.04063832 7.66617115 6.042721 9.33388095 6 11 C5.01 10.67 4.02 10.34 3 10 C2.67 9.01 2.34 8.02 2 7 C1.01 6.34 0.02 5.68 -1 5 C-1.33 4.34 -1.66 3.68 -2 3 C-1.34 3 -0.68 3 0 3 C0 2.01 0 1.02 0 0 Z " fill="#B9B9B9" transform="translate(304,284)"/>
<path d="M0 0 C0.66 0 1.32 0 2 0 C2 2.64 2 5.28 2 8 C3.65 8 5.3 8 7 8 C7 8.66 7 9.32 7 10 C4.69 10 2.38 10 0 10 C0 6.7 0 3.4 0 0 Z " fill="#FCFCFC" transform="translate(186,288)"/>
<path d="M0 0 C1.32 0.33 2.64 0.66 4 1 C4.33 1.99 4.66 2.98 5 4 C4.01 4.495 4.01 4.495 3 5 C2.34444881 7.52733235 2.34444881 7.52733235 2 10 C1.34 10 0.68 10 0 10 C0 6.7 0 3.4 0 0 Z " fill="#EEEEEE" transform="translate(162,288)"/>
<path d="M0 0 C1.32 0 2.64 0 4 0 C4.66 2.64 5.32 5.28 6 8 C5.01 8 4.02 8 3 8 C0.19744677 5.0936485 0 4.21174952 0 0 Z " fill="#9E9E9E" transform="translate(223,290)"/>
<path d="M0 0 C0.144375 0.598125 0.28875 1.19625 0.4375 1.8125 C0.8872439 3.56150404 1.42892341 5.28677023 2 7 C0.68 6.67 -0.64 6.34 -2 6 C-2 5.34 -2 4.68 -2 4 C-2.66 4 -3.32 4 -4 4 C-4.33 4.99 -4.66 5.98 -5 7 C-5 5.35 -5 3.7 -5 2 C-3.35 1.34 -1.7 0.68 0 0 Z " fill="#E3E3E3" transform="translate(270,291)"/>
<path d="M0 0 C0.33 0.66 0.66 1.32 1 2 C1.66 2 2.32 2 3 2 C3 3.98 3 5.96 3 8 C2.34 7.01 1.68 6.02 1 5 C0.01 5 -0.98 5 -2 5 C-2.66 5.99 -3.32 6.98 -4 8 C-4 6.02 -4 4.04 -4 2 C-2.68 2 -1.36 2 0 2 C0 1.34 0 0.68 0 0 Z " fill="#B1B1B1" transform="translate(168,290)"/>
<path d="M0 0 C0.99 0 1.98 0 3 0 C3.33 0.99 3.66 1.98 4 3 C3.34 3.66 2.68 4.32 2 5 C1.83312552 7.58354218 1.83312552 7.58354218 2 10 C1.34 10 0.68 10 0 10 C0 6.7 0 3.4 0 0 Z " fill="#F4F4F4" transform="translate(314,288)"/>
<path d="M0 0 C1.32 0.33 2.64 0.66 4 1 C3.67 2.65 3.34 4.3 3 6 C2.01 6 1.02 6 0 6 C0 4.02 0 2.04 0 0 Z " fill="#161616" transform="translate(199,290)"/>
<path d="M0 0 C0.66 0 1.32 0 2 0 C2 0.99 2 1.98 2 3 C2.66 3.33 3.32 3.66 4 4 C3.01 4 2.02 4 1 4 C1 4.99 1 5.98 1 7 C0.01 7 -0.98 7 -2 7 C-1.34 4.69 -0.68 2.38 0 0 Z " fill="#E3E3E3" transform="translate(252,291)"/>
<path d="M0 0 C0.763125 0.20625 1.52625 0.4125 2.3125 0.625 C2.3125 1.285 2.3125 1.945 2.3125 2.625 C-0.5625 3.25 -0.5625 3.25 -3.6875 3.625 C-4.3475 2.965 -5.0075 2.305 -5.6875 1.625 C-2.6875 -0.375 -2.6875 -0.375 0 0 Z " fill="#C7C7C7" transform="translate(244.6875,287.375)"/>
<path d="M0 0 C1.65 0 3.3 0 5 0 C5 0.66 5 1.32 5 2 C4.34 2 3.68 2 3 2 C2.67 3.65 2.34 5.3 2 7 C1.67 7 1.34 7 1 7 C0.67 4.69 0.34 2.38 0 0 Z " fill="#F4F4F4" transform="translate(177,288)"/>
<path d="M0 0 C0.66 0 1.32 0 2 0 C2.33 1.65 2.66 3.3 3 5 C1 5 -1 5 -3 5 C-3 4.01 -3 3.02 -3 2 C-2.01 2 -1.02 2 0 2 C0 1.34 0 0.68 0 0 Z " fill="#838383" transform="translate(269,288)"/>
<path d="M0 0 C1.485 0.99 1.485 0.99 3 2 C2.01 4.31 1.02 6.62 0 9 C-0.33 9 -0.66 9 -1 9 C-1.09765625 2.84765625 -1.09765625 2.84765625 -1 1 C-0.67 0.67 -0.34 0.34 0 0 Z " fill="#2B2B2B" transform="translate(297,213)"/>
<path d="M0 0 C0.33 0.66 0.66 1.32 1 2 C2.65 2 4.3 2 6 2 C6 2.66 6 3.32 6 4 C3.69 4 1.38 4 -1 4 C-0.67 2.68 -0.34 1.36 0 0 Z " fill="#FBFBFB" transform="translate(289,294)"/>
<path d="M0 0 C1.65 0 3.3 0 5 0 C2.9927092 3.0109362 2.16115776 3.63016497 -1 5 C-0.67 3.35 -0.34 1.7 0 0 Z " fill="#0C0C0C" transform="translate(242,290)"/>
</svg>
